<svg xmlns="http://www.w3.org/2000/svg" viewBox="0 0 153.98 40.95"><defs><style>.cls-1{fill:#0086ff;}.cls-2{fill:#0d0d0d;}</style></defs><title>アセット 4</title><g id="レイヤー_2" data-name="レイヤー 2"><g id="レイヤー_1-2" data-name="レイヤー 1"><polygon class="cls-1" points="0 6.54 0 14.71 21.38 10.39 21.38 32.94 29.94 31.08 29.94 0 0 6.54"/><polygon class="cls-1" points="16.46 18.04 0 14.71 0 37.62 16.46 40.95 16.46 18.04"/><path class="cls-2" d="M57.71,10.32l-3.28,3.6a5.52,5.52,0,0,0-4.31-1.87c-3.09,0-5.7,1.73-5.69,7.31,0,5.81,1.9,8.32,5.84,8.31a7.18,7.18,0,0,0,2.21-.34l0-8H57.6l0,10.38c-1.71,1.18-4.06,2.09-8.43,2.1-6.68,0-10-4-10-11.86,0-8.5,4.91-12.34,11.15-12.36C55,7.61,57.07,9.58,57.71,10.32Z"/><path class="cls-2" d="M76.25,29.69c-1.48,1.21-3.32,2.12-7,2.13-6,0-9-3.33-9.06-9.88,0-6.15,3.4-9.82,8.87-9.83,4.84,0,7.64,3,7.65,7.67a23,23,0,0,1-.23,3.39l-11.32,0c.08,3,1.43,4.63,4.65,4.62A5.72,5.72,0,0,0,74,26.1Zm-11-9.85,6.69,0v-.5c0-2.22-.95-3.39-3-3.39C66.7,15.94,65.37,17.62,65.3,19.84Z"/><path class="cls-2" d="M95.74,31.38l-5.08,0,0-12.06c0-1.95-.91-3.09-2.63-3.09a3.51,3.51,0,0,0-3.25,2.26l0,12.9-5.08,0,0-19h4l1,1.77h.13A6.77,6.77,0,0,1,89.87,12c3.7,0,5.82,2,5.83,6.3Z"/><path class="cls-2" d="M104.8,31.36H99.66L99.6,7.83l5.14,0Zm7.06-23.57h5.91l-7.29,11.47,8.1,12.07-6.42,0L104.91,19.5v-.13Z"/><path class="cls-2" d="M133.76,18.25l0,7.59c0,1.08.4,1.55,1.31,1.54h.54v3.5a4.67,4.67,0,0,1-2.52.64,3.51,3.51,0,0,1-3.43-2h-.14a5.67,5.67,0,0,1-4.83,2.13c-3.69,0-5.61-2.5-5.62-5.23,0-4.36,3.91-6.39,9.89-6.1V18.8c0-2.12-1.18-2.75-2.73-2.75A3.35,3.35,0,0,0,123,18.21l-3.6-2.64A7.82,7.82,0,0,1,126.22,12C131.05,12,133.74,13.65,133.76,18.25ZM129,23.7c-3.32-.22-5,.56-5,2.2a1.81,1.81,0,0,0,2,1.84A3.66,3.66,0,0,0,129,26.39Z"/><path class="cls-2" d="M154,31.23H148.9l0-12c0-2-.91-3.09-2.63-3.09A3.49,3.49,0,0,0,143,18.36l0,12.9H138l0-19h4l1,1.78H143a6.77,6.77,0,0,1,5.1-2.26c3.7,0,5.82,2,5.83,6.3Z"/></g></g></svg>